<?xml version="1.0" standalone="yes"?>
<svg width="672" height="163">
<path style="fill:#ffffff; stroke:none;" d="M0 0L0 71L1 71C2.51661 36.214 38.0901 1.28902 73 1L50 0L0 0z"/>
<path style="fill:#008131; stroke:none;" d="M73 0.424377C56.4561 2.62321 40.8493 8.3017 28 19.3002C-29.3409 68.3815 10.2042 172.019 88 162.715C103.128 160.905 117.694 156.398 130 147.1C183.318 106.815 167.564 17.9141 101 2.23611C91.9204 0.0975647 82.2805 -0.809082 73 0.424377z"/>
<path style="fill:#ffffff; stroke:none;" d="M91 0L91 1C130.812 2.71382 163.691 43.3975 162.946 82C162.358 112.485 144.13 140.682 117 154.247C108.221 158.636 98.8982 161.796 89 162L89 163L672 163L672 96L662 101L659 82C652.615 84.7605 646.499 91.9315 646 99L642 99C642 96.6681 642.048 94.3296 641.985 91.9985C641.425 71.0491 626.508 99.348 621 101L620 79L616 80C622.056 68.0776 630.965 70.1431 631 83C641.147 74.8183 645.727 65.4757 651 82C654.69 79.0869 659.74 71.4095 664.891 71.4807C671.466 71.5716 670.988 89.5645 671 94L672 94L672 0L91 0z"/>
<path style="fill:#7ab919; stroke:none;" d="M69.6667 3.33333L70.3333 3.66667L69.6667 3.33333z"/>
<path style="fill:#fdf202; stroke:none;" d="M71 3.42516C6.95136 12.1436 -22.164 97.241 29.0008 140.561C36.9504 147.292 46.1132 152.662 56 155.996C68.7001 160.279 81.8597 160.583 95 158.715C105.196 157.265 115.398 153.254 124 147.655C179.602 111.467 167.146 19.5733 100 5.01466C90.662 2.98999 80.5 2.13199 71 3.42516z"/>
<path style="fill:#97c515; stroke:none;" d="M90.6667 3.33333L91.3333 3.66667L90.6667 3.33333z"/>
<path style="fill:#51a623; stroke:none;" d="M97.6667 4.33333L98.3333 4.66667L97.6667 4.33333z"/>
<path style="fill:#93c315; stroke:none;" d="M69.6667 6.33333L70.3333 6.66667L69.6667 6.33333z"/>
<path style="fill:#008131; stroke:none;" d="M71 6.42824C59.6184 8.05878 48.5831 11.9331 39 18.3588C-24.3732 60.8522 12.5003 167.674 90 156.572C102.75 154.745 114.307 150.55 125 143.329C189.496 99.7714 146.871 -4.44116 71 6.42824z"/>
<path style="fill:#93c315; stroke:none;" d="M75 9L75 10L87 10L75 9z"/>
<path style="fill:#83bb19; stroke:none;" d="M68.6667 10.3333L69.3333 10.6667L68.6667 10.3333z"/>
<path style="fill:#fdf202; stroke:none;" d="M70 10.4282C-1.80482 20.7382 -10.4977 122.094 55 148.547C67.6723 153.665 81.6651 153.882 95 151.866C136.428 145.6 162.815 99.299 150.254 60C139.349 25.8841 105.191 5.37544 70 10.4282z"/>
<path style="fill:#86bd18; stroke:none;" d="M92.6667 10.3333L93.3333 10.6667L92.6667 10.3333z"/>
<path style="fill:#48a224; stroke:none;" d="M74 12L74 13L86 13L74 12z"/>
<path style="fill:#9dc713; stroke:none;" d="M86 12L86 13L89 13L86 12z"/>
<path style="fill:#008131; stroke:none;" d="M68 13.4637C1.25565 25.2616 -6.61532 123.583 57 146.302C69.4207 150.737 83.0878 151.165 96 148.739C164.766 135.819 167.893 31.9512 100 14.8951C90.1719 12.426 78.032 11.6905 68 13.4637z"/>
<path style="fill:#90c216; stroke:none;" d="M93.6667 13.3333L94.3333 13.6667L93.6667 13.3333z"/>
<path style="fill:#4ca323; stroke:none;" d="M78 14L78 15L84 15L78 14z"/>
<path style="fill:#93c215; stroke:none;" d="M70.6667 15.3333L71.3333 15.6667L70.6667 15.3333z"/>
<path style="fill:#fff100; stroke:none;" d="M72 15.4282C8.86773 24.4726 -7.77896 117.298 54 142.546C67.0784 147.891 80.1362 148.871 94 146.725C162.452 136.131 164.646 35.6681 100 17.4282C91.036 14.8991 81.2501 14.1031 72 15.4282z"/>
<path style="fill:#55a721; stroke:none;" d="M91.6667 15.3333L92.3333 15.6667L91.6667 15.3333z"/>
<path style="fill:#008131; stroke:none;" d="M72 56C80.0167 54.1162 85.5203 47.5515 90 41L91 41L94 46C96.8571 42.9349 95.7201 24.4549 90.0247 27.0864C82.5946 30.5195 88.2387 36.9583 85.4082 42C82.2721 47.5858 75.7794 50.8651 72 56z"/>
<path style="fill:#fdf006; stroke:none;" d="M88 31L92 35L92 30L88 31z"/>
<path style="fill:#57a721; stroke:none;" d="M70.6667 31.3333L71.3333 31.6667L70.6667 31.3333z"/>
<path style="fill:#64ad21; stroke:none;" d="M92.3333 31.6667L92.6667 32.3333L92.3333 31.6667z"/>
<path style="fill:#008131; stroke:none;" d="M70 32L72 46L71 46L66 33L65 33C65.0019 35.8214 67.0739 44.2906 65.206 46.2485C61.2504 50.3946 59.1458 36.7847 59 35C54.8466 36.3119 54.2276 38.8577 54 43L57 41C57.7544 44.0622 57.7248 48.9902 59.9383 51.3927C62.3916 54.0557 71.0023 51.6586 73.2577 49.3758C77.6524 44.9276 74.49 34.9438 70 32M48 34L46 42L38 35L37 43L46 50L51 40L52 35L48 34z"/>
<path style="fill:#65ad1f; stroke:none;" d="M64 34L64 39L65 39L64 34z"/>
<path style="fill:#008131; stroke:none;" d="M107 37C104.456 45.6247 107.775 58.1626 109.247 67C112.277 85.1896 115.152 101.647 115 120L116 120C122.235 97.8118 113.182 78.0016 113 56L117 58L107 37z"/>
<path style="fill:#97c415; stroke:none;" d="M36 38L36 41L37 41L36 38z"/>
<path style="fill:#56a622; stroke:none;" d="M59.3333 38.6667L59.6667 39.3333L59.3333 38.6667z"/>
<path style="fill:#9fc713; stroke:none;" d="M97.3333 39.6667L97.6667 40.3333L97.3333 39.6667z"/>
<path style="fill:#5fab1f; stroke:none;" d="M75 41L75 45L76 45L75 41z"/>
<path style="fill:#94c215; stroke:none;" d="M105 41L105 44L106 44L105 41z"/>
<path style="fill:#5faa20; stroke:none;" d="M66 44L66 47L67 47L66 44z"/>
<path style="fill:#a3c812; stroke:none;" d="M58.3333 48.6667L58.6667 49.3333L58.3333 48.6667z"/>
<path style="fill:#81ba18; stroke:none;" d="M107 51L107 57L108 57L107 51z"/>
<path style="fill:#4ea423; stroke:none;" d="M69 57L69 58L73 57L69 57z"/>
<path style="fill:#71b31a; stroke:none;" d="M117 57L116 59L118 59L117 57z"/>
<path style="fill:#008131; stroke:none;" d="M401 102C410.162 97.7357 413 93.8127 413 84C423.581 96.1939 434.003 101.209 442 83L447 102C450.069 100.709 453.475 97.398 456.83 97.213C459.76 97.0514 462.164 99.9732 465.004 100.541C471.051 101.75 476.207 97.0094 480 93L483 101L492 96C489.729 89.76 482.289 72.1525 474.961 70.9938C471.209 70.4008 466.996 74.1963 464 76L464 78L465 79L473 83C465.778 83.7397 460.543 87.1286 458 94L457 94L451.549 69L455 57C451.025 58.4552 443.514 61.3143 441.603 65.3897C438.718 71.5457 441.585 80.201 434.471 84.7222C430.611 87.1753 426.702 83.4071 424.258 80.696C418.26 74.0391 412.473 66.2232 412 57L402.955 64.1844L405.456 76L401 102M242 58C238.015 59.459 231.407 62.0244 229.603 66.2099C226.535 73.3335 231.073 83.5807 223.61 89.3781C219.76 92.3688 216.092 87.958 214.093 84.9599C208.773 76.98 207.001 67.3804 207 58C203.115 59.1429 197.494 61.1651 195.746 65.2099C193.485 70.444 197.687 77.3869 199.836 82C206.231 95.7236 217.788 109.564 229.301 91.9961C232.385 87.2906 234.98 82.1915 237.138 77C239.652 70.9516 241.714 64.5681 242 58z"/>
<path style="fill:#61ac1f; stroke:none;" d="M36 59L35 61L37 61L36 59z"/>
<path style="fill:#008131; stroke:none;" d="M365 59L358 65L366 70L366 71C361.431 72.7296 356.879 74.8743 356 80L360 79L361 101C364.057 99.8428 368.067 98.2386 369.972 95.3912C373.497 90.1244 372.138 72.4653 366 70L366 69L372 66L372 64L365 59M35 61C31.1382 67.6178 25.9462 79.2671 30.3179 86.8519C34.5156 94.1348 42.3329 87.936 43 82C26.1355 88.9309 36.3187 67.3707 35 61M91 103C79.6313 113.848 52.0826 130.147 44.8002 106C42.8628 99.5762 45.478 93.3911 46 87L45 87C42.5748 92.2091 41.073 97.2201 41.0039 103C40.9505 107.461 40.2933 112.783 42.0093 116.999C49.4936 135.39 75.5069 122.12 86 114.572C90.0573 111.653 99.7485 104.274 95.3565 98.2785C91.1752 92.5712 76.4149 94.8107 70 94L81 81L82 81L85 83L85 79C102.874 76.5792 97.692 57.8398 82.0154 61.4738C79.2466 62.1156 77.1158 64.2467 76.4738 67.0154C75.6095 70.7429 78.5698 74.4118 77.0177 78C74.7714 83.1932 61.5857 91.3242 67.0285 98.4005C70.6494 103.108 85.3693 101.215 91 103z"/>
<path style="fill:#6cb11d; stroke:none;" d="M108 62L108 65L109 65L108 62z"/>
<path style="fill:#008131; stroke:none;" d="M121 62C119.465 68.545 122.476 73.3683 128 77C128.791 72.0361 137.1 65.3598 130 63L129 68L121 62M493 76L493 78L499 79C499 92.3967 497.827 104.507 514 96L514 94C502.575 86.8793 513.419 78.6589 517 71L509 71L510 63L493 76z"/>
<path style="fill:#6bb11d; stroke:none;" d="M13.3333 67.6667L13.6667 68.3333L13.3333 67.6667z"/>
<path style="fill:#8cbf17; stroke:none;" d="M6.33333 68.6667L6.66667 69.3333L6.33333 68.6667z"/>
<path style="fill:#fdf202; stroke:none;" d="M80 68L83 74L91 72L91 70L80 68z"/>
<path style="fill:#8dbf16; stroke:none;" d="M109.333 68.6667L109.667 69.3333L109.333 68.6667z"/>
<path style="fill:#95c416; stroke:none;" d="M3.33333 69.6667L3.66667 70.3333L3.33333 69.6667z"/>
<path style="fill:#accd10; stroke:none;" d="M15.3333 69.6667L15.6667 70.3333L15.3333 69.6667z"/>
<path style="fill:#008131; stroke:none;" d="M243 80L247 79L248 101C254.227 99.9865 268.423 72.2238 268.985 92.9954C269.039 94.9945 269 97.0002 269 99L273 99C275.236 91.9362 279.77 85.9797 286 82L289 101L299 96C298.367 90.992 298.913 72.2237 292.775 70.8318C287.507 69.6368 281.119 78.7394 278 82C273.953 65.6164 266.702 73.0387 258 83C257.998 79.7836 258.817 74.3166 256.142 71.9012C251.523 67.7301 244.121 75.9773 243 80M299 77L299 79L300 80L304 79L305 101L309 101C310.24 97.0826 316.944 82.0069 322.682 84.9213C326.308 86.7632 325.929 95.5526 326 99L343 82L346 101C361.448 95.1387 354.533 59.842 338.773 77.169C337.099 79.0101 336.024 80.7703 335 83L334 83C333.221 65.1394 323.667 73.3331 315 82C314.401 68.2588 308.169 71.2961 299 77M524 76L524 78L525 79L533 83C527.789 83.7811 521.531 85.6309 519.411 91.0432C516.357 98.8427 526.169 102.396 531.999 99.5471C535.15 98.0079 537.626 95.5099 540 93L543 101L552 96C549.639 89.5117 542.762 72.1278 534.996 70.9969C531.282 70.456 527.062 74.3022 524 76M553 80L557 79L559 101C569.242 96.6885 568 89.7287 568 80L572 84L581 78C578.548 69.7721 574.059 69.9081 568 75L566 70C560.582 71.0478 554.003 74.1515 553 80M588 79L597 83C591.719 83.464 586.304 85.0574 583.573 90.0432C580.273 96.0679 585.6 101.661 592 100.562C595.767 99.9161 598.894 97.0266 602 95L601 93L601 92L606 101C627.285 94.1982 594.706 57.0625 588 79M616 80L620 79L621 101C627.232 99.9724 641.408 71.6685 641.985 92.9954C642.039 94.9945 642 97.0002 642 99L646 99C647.095 92.0336 653.265 85.6632 659 82L662 101L672 96C670.149 86.0313 671.602 62.01 656.667 76.0023C654.657 77.8854 652.848 79.9617 651 82C646.953 65.6164 639.702 73.0387 631 83C630.998 79.7796 631.815 74.322 629.142 71.9012C624.622 67.8084 617.167 76.1967 616 80z"/>
<path style="fill:#6ab01c; stroke:none;" d="M147.333 71.6667L147.667 72.3333L147.333 71.6667z"/>
<path style="fill:#48a125; stroke:none;" d="M156 71L156 75L157 75L156 71z"/>
<path style="fill:#66af1d; stroke:none;" d="M159.333 71.6667L159.667 72.3333L159.333 71.6667z"/>
<path style="fill:#309729; stroke:none;" d="M12 73L12 87L13 87L12 73z"/>
<path style="fill:#b5d310; stroke:none;" d="M9 74L9 86L10 86L9 74z"/>
<path style="fill:#7db819; stroke:none;" d="M29.3333 74.6667L29.6667 75.3333L29.3333 74.6667z"/>
<path style="fill:#48a224; stroke:none;" d="M2 75L2 86L3 86L2 75z"/>
<path style="fill:#afcf11; stroke:none;" d="M5 75L5 84L6 84L5 75z"/>
<path style="fill:#008131; stroke:none;" d="M57 75C56.1471 76.9823 55.4027 78.8963 54.8981 81.0046C50.8791 97.7986 69.9698 88.5681 63.9576 79.6844C62.509 77.544 59.1709 76.2511 57 75z"/>
<path style="fill:#71b31a; stroke:none;" d="M14 77L14 85L15 85L14 77z"/>
<path style="fill:#bed60d; stroke:none;" d="M150 77L150 85L151 85L150 77z"/>
<path style="fill:#aacb10; stroke:none;" d="M111.333 79.6667L111.667 80.3333L111.333 79.6667z"/>
<path style="fill:#008131; stroke:none;" d="M128 79C125.105 83.9843 121.792 91.9057 124.742 97.6821C127.88 103.825 132.602 96.529 133 93C122.518 95.8941 129.319 83.7556 128 79z"/>
<path style="fill:#fdf202; stroke:none;" d="M57 82L62 86L57 82z"/>
<path style="fill:#66af1d; stroke:none;" d="M36 84L36 85L39 85L36 84z"/>
<path style="fill:#99c513; stroke:none;" d="M64.3333 84.6667L64.6667 85.3333L64.3333 84.6667z"/>
<path style="fill:#87bd16; stroke:none;" d="M112.333 84.6667L112.667 85.3333L112.333 84.6667z"/>
<path style="fill:#6db31c; stroke:none;" d="M59.6667 86.3333L60.3333 86.6667L59.6667 86.3333z"/>
<path style="fill:#9ac513; stroke:none;" d="M117.333 86.6667L117.667 87.3333L117.333 86.6667z"/>
<path style="fill:#67b01d; stroke:none;" d="M159 88L159 91L160 91L159 88z"/>
<path style="fill:#ffffff; stroke:none;" d="M467 88L467 92L479 93C475.677 88.9136 472.13 88.1098 467 88M527 88C528.816 93.7484 533.896 92.729 539 93C535.677 88.9136 532.13 88.1098 527 88M590 88C592.005 93.11 596.133 93.118 601 92L601 90L590 88z"/>
<path style="fill:#adcf11; stroke:none;" d="M152 89L152 92L153 92L152 89z"/>
<path style="fill:#49a224; stroke:none;" d="M33 90L33 91L37 91L33 90z"/>
<path style="fill:#a2c813; stroke:none;" d="M113.333 90.6667L113.667 91.3333L113.333 90.6667z"/>
<path style="fill:#419e24; stroke:none;" d="M123 90L123 96L124 96L123 90z"/>
<path style="fill:#ffffff; stroke:none;" d="M0 91L0 163L74 163L74 162C47.4151 161.78 21.0712 141.985 9.25926 119C4.60483 109.943 3.88075 99.9963 0 91z"/>
<path style="fill:#8fc216; stroke:none;" d="M3.33333 91.6667L3.66667 92.3333L3.33333 91.6667z"/>
<path style="fill:#72b31b; stroke:none;" d="M6 91L6 94L7 94L6 91z"/>
<path style="fill:#71b31a; stroke:none;" d="M15.3333 91.6667L15.6667 92.3333L15.3333 91.6667z"/>
<path style="fill:#7db91a; stroke:none;" d="M149.333 91.6667L149.667 92.3333L149.333 91.6667z"/>
<path style="fill:#bed50d; stroke:none;" d="M132 92L133 95L134 95L134 92L132 92z"/>
<path style="fill:#64ad1f; stroke:none;" d="M10.3333 93.6667L10.6667 94.3333L10.3333 93.6667z"/>
<path style="fill:#95c416; stroke:none;" d="M13.3333 93.6667L13.6667 94.3333L13.3333 93.6667z"/>
<path style="fill:#56a721; stroke:none;" d="M73 94L73 95L86 95L73 94z"/>
<path style="fill:#008131; stroke:none;" d="M29 100C32.4584 102.268 31.4625 105.238 31 109C37.9974 101.988 31.0599 90.563 29 100z"/>
<path style="fill:#adcd0f; stroke:none;" d="M44.3333 95.6667L44.6667 96.3333L44.3333 95.6667z"/>
<path style="fill:#459f24; stroke:none;" d="M65 95L65 99L66 99L65 95z"/>
<path style="fill:#56a721; stroke:none;" d="M118 95L118 99L119 99L118 95z"/>
<path style="fill:#a5ca12; stroke:none;" d="M114.333 96.6667L114.667 97.3333L114.333 96.6667z"/>
<path style="fill:#56a822; stroke:none;" d="M151.333 96.6667L151.667 97.3333L151.333 96.6667z"/>
<path style="fill:#8fbf16; stroke:none;" d="M35 97L35 100L36 100L35 97z"/>
<path style="fill:#49a224; stroke:none;" d="M68 100L68 101L73 101L68 100z"/>
<path style="fill:#a0c812; stroke:none;" d="M127.667 100.333L128.333 100.667L127.667 100.333z"/>
<path style="fill:#87bd16; stroke:none;" d="M84 101L84 102L87 102L84 101z"/>
<path style="fill:#61ac1f; stroke:none;" d="M40 102L40 110L41 110L40 102z"/>
<path style="fill:#99c513; stroke:none;" d="M115.333 102.667L115.667 103.333L115.333 102.667z"/>
<path style="fill:#7db819; stroke:none;" d="M118.333 107.667L118.667 108.333L118.333 107.667z"/>
<path style="fill:#008131; stroke:none;" d="M105 110L86 129L82 122L81 122C78.1775 126.494 78.8941 130.874 85 130L83 135C89.7849 131.083 107.651 119.116 105 110M105 118C103.086 124.476 107.416 134.166 111 124L105 118z"/>
<path style="fill:#8fbf16; stroke:none;" d="M103 122L103 126L104 126L103 122z"/>
<path style="fill:#008131; stroke:none;" d="M72 134L74 134L77 128C70.3427 124.542 68.3526 128.171 72 134z"/>
<path style="fill:#d5e108; stroke:none;" d="M85 129L86 130L85 129z"/>
<path style="fill:#aacb10; stroke:none;" d="M84 130L83 132L85 132L84 130z"/>
<path style="fill:#74b41a; stroke:none;" d="M82.6667 135.333L83.3333 135.667L82.6667 135.333z"/>
<path style="fill:#54a721; stroke:none;" d="M95.6667 146.333L96.3333 146.667L95.6667 146.333z"/>
<path style="fill:#84bc18; stroke:none;" d="M71.6667 147.333L72.3333 147.667L71.6667 147.333z"/>
<path style="fill:#adcd0f; stroke:none;" d="M88 147L88 148L91 148L88 147z"/>
<path style="fill:#69b01d; stroke:none;" d="M91 149L91 150L94 150L91 149z"/>
<path style="fill:#92c216; stroke:none;" d="M76 150L76 151L86 151L76 150z"/>
<path style="fill:#6db31c; stroke:none;" d="M69.6667 152.333L70.3333 152.667L69.6667 152.333z"/>
<path style="fill:#96c415; stroke:none;" d="M90 152L90 153L93 153L90 152z"/>
<path style="fill:#53a622; stroke:none;" d="M65.6667 155.333L66.3333 155.667L65.6667 155.333z"/>
<path style="fill:#8ec017; stroke:none;" d="M70.6667 156.333L71.3333 156.667L70.6667 156.333z"/>
<path style="fill:#9dc713; stroke:none;" d="M65.6667 158.333L66.3333 158.667L65.6667 158.333z"/>
<path style="fill:#4ca324; stroke:none;" d="M88 159L88 160L92 160L88 159z"/>
</svg>
